<svg
  xmlns="http://www.w3.org/2000/svg"
  width="24"
  height="24"
  viewBox="0 0 24 24"
  fill="none"
  stroke="currentColor"
  stroke-width="2"
  stroke-linecap="round"
  stroke-linejoin="round"
  class="icon icon-brand-tencent-qzone"
>
  <path
    vector-effect="non-scaling-stroke"
    transform="scale(0.0937412)"
    d="m223.167 104.898c-1.377-3.091-12.063-2.461-16.321-3.203l-34.094-3.509c-4.423-.763-11.533-.077-14.72-2.06-2.128-1.324-5.234-10.036-6.483-12.89l-15.482-34.245c-1.518-3.454-3.293-8.846-5.415-11.67-.66-.878-1.801-2.673-3.737-2.135-2.074.575-2.771 2.478-3.661 4.271-1.745 3.517-3.365 7.183-5.186 10.754l-15.712 32.567c-1.503 3.338-4.764 11.567-7.627 13.043-1.378.71-3.215.468-4.958.763l-9.839 1.067a352318.93 352318.93 0 0 0 -32.186 3.737c-4.335.73-14.32.37-16.017 3.355-.909 1.601.327 3.493 1.068 4.424l2.822 2.594c2.256 1.807 4.135 4.12 6.407 5.948l25.551 23.797 7.322 6.788c1.055.85 2.557 1.911 3.127 3.203.854 1.935-1.428 11.252-1.983 13.652l-6.864 36.229-2.288 12.051c-.31 1.62-.081 3.896.763 4.652 1.108.994 3.243 1.031 4.729.305l10.602-6.102 28.678-16.627 9.229-5.339c1.767-1.071 3.344-2.144 5.797-2.593 3.76-.689 10.677 4.403 13.118 5.872l32.11 18.534 9.229 5.339c1.052.653 2.705 1.928 4.729 1.449 3.998-.946 1.73-9.357.991-12.737l-7.169-39.279 6.635-2.669c4.232-1.813 5.492-3.582 5.492-3.582s-2.354.804-6.254 1.766a107.84 107.84 0 0 1 -6.652 1.409c-1.035-4.854-2.336-9.591-1.738-11.72.747-2.656 7.774-8.328 9.992-10.297l23.796-22.424 10.372-9.762c.959-.959 2.736-2.687 1.827-4.726z"
  />
  <path
    vector-effect="non-scaling-stroke"
    transform="scale(0.0937412)"
    d="m178.244 160.728s4.627.204-14.187-.305c-7.567-.082-31.401-2.047-32.567-2.136l-10.067-.915c-1.689-.271-3.928.146-4.805-.915v-.229c20.717-14.021 40.876-29.002 61.703-42.939l-.076-.534c-1.755-.862-4.303-.708-6.483-1.145-4.616-.923-9.481-.926-14.491-1.754-8.998-1.487-19.084-1.372-29.211-1.373-14.06-.002-27.945.369-40.196 2.517-5.404.947-10.734 1.144-15.711 2.364-2.064.506-4.3.358-5.873 1.296l.076.153c1.2.324 3.035.229 4.576.229l11.136.229 9.686.306 9.763.381 7.093.382c5.828.909 12.077.43 17.695 1.372 4.849.814 9.649.779 14.186 1.678 1.354.269 2.945.18 3.966.764v.076c-.471 1.133-4.035 3.067-5.187 3.813l-12.661 8.924-27.076 19.448-17.008 11.898c.038.577.297.413.548.735 13.788 1.998 30.242 3.096 45.244 3.143 15.574.05 29.583-1.133 37.42-2.325 6.728-1.023 12.98-1.757 19.83-3.445 3.9-.962 6.254-1.766 6.254-1.766z"
  />
</svg>
